# xmcd
#
# Track frame offsets:
#	150
#	25955
#	52272
#	82707
#	95870
#	115572
#	135070
#	151565
#	182240
#
# Disc length: 2692 seconds
#
# Revision: 0
# Processed by: cddbd v1.5.2PL0 Copyright (c) Steve Scherf et al.
# Submitted via: EasyCDDAExtractor 10.5.1.1
#
DISCID=620a8209
DTITLE=Various Artist - חתונה תוניסאית, טריפוליטאית
DYEAR=1900
DGENRE=
TTITLE0=דירבלי - טריפוליטאית
TTITLE1=חינת אלערוסה - טריפוליטאית
TTITLE2=יא ללאת יאליל
TTITLE3=דבליז וואחדידה
TTITLE4=זארי יחמודה
TTITLE5=ימרחבה
TTITLE6=יזאייה פיבלי
TTITLE7=תלאמית לחבאיב
TTITLE8=עשאגה
EXTD=
EXTT0=
EXTT1=
EXTT2=
EXTT3=
EXTT4=
EXTT5=
EXTT6=
EXTT7=
EXTT8=
PLAYORDER=
